#define circles_width 32
#define circles_height 32
static unsigned char circles_bits[] = {
   0x00, 0x00, 0x00, 0x00, 0x00, 0x80, 0x00, 0x00, 0x00, 0x28, 0x14, 0x00,
   0x00, 0x02, 0x60, 0x00, 0x80, 0x00, 0x00, 0x01, 0x20, 0x00, 0x00, 0x02,
   0x10, 0x80, 0x00, 0x04, 0x00, 0x28, 0x0a, 0x00, 0x08, 0x04, 0x10, 0x08,
   0x04, 0x01, 0x40, 0x00, 0x80, 0x00, 0x00, 0x10, 0x00, 0x00, 0x80, 0x00,
   0x42, 0x80, 0x00, 0x20, 0x00, 0x20, 0x02, 0x00, 0x42, 0x10, 0x04, 0x21,
   0x01, 0x40, 0x01, 0x40, 0x20, 0x88, 0x08, 0x02, 0x01, 0x40, 0x01, 0x40,
   0x42, 0x10, 0x04, 0x21, 0x00, 0x20, 0x02, 0x00, 0x42, 0x80, 0x00, 0x01,
   0x00, 0x00, 0x80, 0x20, 0x80, 0x00, 0x00, 0x00, 0x04, 0x01, 0x40, 0x10,
   0x08, 0x04, 0x10, 0x00, 0x00, 0x28, 0x0a, 0x08, 0x10, 0x80, 0x00, 0x04,
   0x20, 0x00, 0x00, 0x02, 0x80, 0x00, 0x80, 0x00, 0x00, 0x01, 0x40, 0x00,
   0x00, 0x24, 0x0a, 0x00, 0x00, 0x40, 0x01, 0x00};
