#define terrain_width 32
#define terrain_height 32
static unsigned char terrain_bits[] = {
   0x00, 0x00, 0x00, 0x00, 0x00, 0x00, 0x00, 0x00, 0x00, 0x00, 0x00, 0x00,
   0x00, 0x00, 0x00, 0x00, 0x08, 0x00, 0x00, 0x00, 0x14, 0x00, 0x00, 0x00,
   0x22, 0x00, 0x00, 0x00, 0xe2, 0xff, 0xff, 0x07, 0x22, 0x00, 0x00, 0x18,
   0x22, 0x80, 0x02, 0x20, 0x22, 0x20, 0x08, 0x20, 0x22, 0x00, 0x20, 0x22,
   0x22, 0x10, 0x70, 0x27, 0x22, 0x00, 0xe0, 0x23, 0x22, 0x10, 0xc0, 0x21,
   0x22, 0x00, 0xe0, 0x23, 0x22, 0x40, 0x70, 0x27, 0x22, 0x01, 0x21, 0x22,
   0x22, 0x00, 0x00, 0x20, 0x22, 0x02, 0x04, 0x20, 0x22, 0x00, 0x00, 0x20,
   0x22, 0x04, 0x10, 0x20, 0x22, 0x00, 0x00, 0x20, 0x2a, 0x10, 0x90, 0x20,
   0x36, 0x40, 0x85, 0x20, 0x22, 0x00, 0x40, 0x21, 0x14, 0x20, 0x40, 0x21,
   0xf8, 0xdf, 0x3f, 0x3e, 0x00, 0x00, 0x00, 0x00, 0x00, 0x00, 0x00, 0x00,
   0x00, 0x00, 0x00, 0x00, 0x00, 0x00, 0x00, 0x00};
