#define plot_width 32
#define plot_height 32
static unsigned char plot_bits[] = {
   0x00, 0x00, 0x00, 0x00, 0x00, 0x00, 0x00, 0x00, 0x00, 0x00, 0x00, 0x00,
   0xf8, 0xff, 0xff, 0x1f, 0x08, 0x00, 0x00, 0x10, 0x08, 0x00, 0x00, 0x10,
   0x08, 0x00, 0xe0, 0x11, 0x08, 0x00, 0x20, 0x11, 0x08, 0x00, 0x20, 0x11,
   0x08, 0x00, 0x20, 0x11, 0x08, 0x78, 0x20, 0x11, 0x08, 0x48, 0x20, 0x11,
   0x08, 0x48, 0x20, 0x11, 0x08, 0x48, 0x20, 0x11, 0x08, 0x48, 0x20, 0x11,
   0x08, 0x48, 0x20, 0x11, 0xc8, 0x4b, 0x20, 0x11, 0x48, 0x4a, 0x20, 0x11,
   0x48, 0x4a, 0x20, 0x11, 0x48, 0x4a, 0x2f, 0x11, 0x48, 0x4a, 0x29, 0x11,
   0x48, 0x4a, 0x29, 0x11, 0x48, 0x4a, 0x29, 0x11, 0x48, 0x4a, 0x29, 0x11,
   0x48, 0x4a, 0x29, 0x11, 0xc8, 0x7b, 0xef, 0x11, 0x08, 0x00, 0x00, 0x10,
   0x08, 0x00, 0x00, 0x10, 0xf8, 0xff, 0xff, 0x1f, 0x00, 0x00, 0x00, 0x00,
   0x00, 0x00, 0x00, 0x00, 0x00, 0x00, 0x00, 0x00};
