#define scatter_width 32
#define scatter_height 32
static unsigned char scatter_bits[] = {
   0x00, 0x02, 0x00, 0x00, 0xc0, 0x1d, 0x00, 0x00, 0x20, 0x20, 0x00, 0x00,
   0x10, 0x40, 0x00, 0x00, 0x10, 0x40, 0x00, 0x00, 0x10, 0x40, 0x00, 0x00,
   0x08, 0x80, 0x40, 0x00, 0x18, 0xc0, 0xb0, 0x01, 0x18, 0xc0, 0x10, 0x01,
   0x10, 0x40, 0x08, 0x02, 0x30, 0x60, 0x18, 0x03, 0xd0, 0x5d, 0xb0, 0x03,
   0x10, 0x42, 0x50, 0x02, 0x20, 0x20, 0x10, 0x02, 0x20, 0x20, 0x10, 0x01,
   0x20, 0x20, 0x20, 0x01, 0x20, 0x20, 0x20, 0x01, 0x20, 0x20, 0xe0, 0x01,
   0x40, 0x10, 0x20, 0x01, 0x40, 0x10, 0x20, 0x01, 0xc0, 0x1f, 0xe0, 0x01,
   0x40, 0x10, 0x00, 0x00, 0x40, 0x10, 0x00, 0x00, 0x40, 0x10, 0x00, 0x00,
   0x40, 0x10, 0x00, 0x00, 0x40, 0x10, 0x00, 0x00, 0xc0, 0x1f, 0x00, 0x00,
   0x00, 0x00, 0x00, 0x00, 0x00, 0x00, 0x00, 0x00, 0x00, 0x00, 0x00, 0x00,
   0x00, 0x00, 0x00, 0x00, 0x00, 0x00, 0x00, 0x00};
